PathFileType	4	(X/Y/Z)	C:\Users\°ÂÌØÂü\Desktop\20210112\bx_n_10_502-Unnamed.trc
DataRate	CameraRate	NumFrames	NumMarkers	Units	OrigDataRate	OrigDataStartFrame	OrigNumFrames
50.00	50.00	       8	0	mm	50.00	60	       473
Frame#	Time	
		

60	1.180	-659.65143	300.20163	1526.23120	-608.55707	1.57491	1056.33862	-696.88202	290.49908	873.27838	-592.76093	-1.50584	809.75397	-592.88989	219.84193	818.27917	-702.72626	274.64539	744.16425	-731.01282	253.75775	642.32721	-716.35699	69.78277	215.65230	-689.77966	146.93663	578.59204	-731.46045	249.17365	576.50970	-662.27094	19.39910	519.82214	-771.19513	258.14484	501.78110	-676.90460	207.96959	535.53430				-710.89319	153.63272	216.71614	-767.70636	226.30605	205.25394	-882.60254	295.87186	144.42915	-671.95270	52.70184	159.64323	-673.91168	171.91437	157.64183	-591.17133	219.77048	174.24945	-660.94427	298.55545	157.59840	-624.29077	306.82532	158.51535	-555.51025	257.43655	164.56343	-528.11450	304.37653	146.40186	-545.53174	135.43633	1829.06519				-517.38855	-73.10177	143.16148	-549.34943	-30.17912	164.33391	-794.77301	176.85295	183.47542	-637.14203	-61.55263	1533.42297	-790.72894	40.14166	174.41591	-811.74884	101.26459	1054.85938	-758.06866	-39.75744	490.64471	-597.29663	25.00219	167.75958	-758.30035	-18.75980	207.49153	-875.97473	-78.84007	141.37231	-670.80219	-67.65710	875.60608	-689.36432	-56.10820	760.34821	-607.47742	-76.24658	157.15504	-649.43683	-68.94294	160.91930	-582.00775	114.71201	1341.58716	-616.23712	248.73244	1067.12585	-688.72412	77.91345	574.88489	-707.06604	-30.64227	618.00568	-713.42700	-28.55216	570.66846	
61	1.200	-654.54279	300.34238	1525.87646				-700.01373	290.31027	873.48291	-595.78766	-2.09808	809.57404	-595.42462	220.24886	818.95807	-705.40106	274.48865	744.25745	-732.78082	253.55663	642.24829	-716.15820	69.45476	215.74147	-691.48492	146.76474	578.26740	-733.04010	248.88435	576.34106	-663.55438	19.19372	520.50952	-772.51691	258.42590	501.86957	-678.34338	208.02968	535.90051				-711.12036	153.65878	217.11778	-767.78534	226.22307	205.09543	-882.55939	296.06055	144.58881	-671.66144	52.35047	159.59471	-673.99542	171.71802	157.52122	-591.33539	219.89137	174.07568	-660.94427	298.55545	157.59840	-624.46136	306.89774	158.47542	-555.54712	257.45386	164.48743	-528.12280	304.28763	146.42749	-535.42249	135.39247	1826.47693				-517.61731	-72.90974	142.92926	-549.15973	-29.93672	164.18193	-794.72443	176.93321	183.35240	-632.59869	-61.59385	1532.67993	-790.65771	40.21852	174.27940	-814.49762	101.27280	1055.75488	-759.55688	-39.42111	490.15945	-597.35266	24.98892	167.59834	-758.52148	-18.80801	207.38347	-875.90894	-78.91099	141.15625	-673.89844	-67.81596	875.90472	-692.32068	-56.53702	760.64880	-607.42700	-76.22720	157.25078	-649.54932	-69.18757	161.00729	-580.72217	114.10307	1339.62830	-618.69989	248.03226	1067.17200	-689.92505	77.89140	574.81848	-709.07214	-30.36479	617.94678	-715.01978	-28.54183	570.46704	
62	1.220	-648.92352	300.13486	1525.06018				-702.77118	289.68741	873.40540	-598.98022	-2.82001	810.25745	-598.35718	219.73569	818.73596	-707.87292	274.31607	744.14624	-734.92725	253.40611	642.05634	-716.28845	69.42937	215.82549	-693.35553	146.95450	578.35980	-734.95264	248.83920	576.39783	-665.22095	19.05366	520.86200	-773.68005	258.52710	501.52109	-679.88678	208.28528	535.74823				-711.41266	153.84616	216.97397	-767.73096	226.27905	205.00476	-882.45392	296.13477	144.71115	-671.92670	52.35521	159.49864	-673.86389	171.63902	157.65695	-591.40466	219.90794	174.33458	-660.82184	298.58722	157.60507	-624.46136	306.89774	158.47542	-555.53992	257.46774	164.63138	-527.99902	304.12732	146.59570	-525.02075	135.37677	1823.34753				-517.29614	-73.02589	142.95265	-549.52966	-29.93137	164.39848	-794.85431	176.96416	183.32292	-627.63550	-61.77412	1531.87805	-790.67517	40.21797	174.15715	-817.57538	101.47663	1057.02673	-760.84924	-39.90878	490.21436	-597.21204	24.88098	167.95012	-758.53729	-18.89347	207.32260	-875.92670	-78.96062	141.07973	-678.22687	-68.03032	876.00934	-695.90845	-55.75871	760.35339	-607.36499	-76.19837	157.14037	-649.49841	-69.08387	160.92972	-579.21027	113.70435	1338.04541				-691.92255	77.87376	574.87439	-712.45166	-30.39442	617.27881	-716.54803	-28.43406	570.39185	
63	1.240	-643.28882	300.60062	1524.51770	-624.46234	247.02029	1066.28381	-706.07263	289.70395	873.74457	-601.91199	-2.92558	810.25317	-601.32635	219.82216	818.86267	-710.74786	274.38763	744.34845	-737.31305	253.82784	641.94489	-716.43781	69.41094	215.90161	-695.03613	146.91638	578.35364	-736.81262	249.04277	576.42865	-666.22571	18.98836	521.05341	-775.24988	258.37573	501.13101	-681.49652	208.08777	535.70258	-619.54834	1.40111	1054.30444	-711.54083	154.12671	216.84010	-767.84381	226.49605	204.84270	-882.43549	296.00012	144.61276	-671.82764	52.60597	159.74895	-674.02954	171.98247	158.11751	-591.46564	220.11400	174.62010	-660.90723	298.73627	157.62036	-624.39337	306.80338	158.41795	-555.61713	257.35568	164.66812	-528.12280	304.28763	146.42749	-514.34760	135.15547	1820.07922				-517.42072	-73.05975	142.93814	-549.59351	-30.00350	164.25914	-794.88489	177.05037	183.30882	-622.34149	-62.08877	1530.89038	-791.03223	40.07693	174.06766	-820.86877	101.44141	1058.32715	-762.17847	-39.89546	490.05066	-597.40668	24.77045	167.90964	-758.74542	-18.92033	207.22682	-876.03003	-78.76418	141.18285	-682.01111	-68.11511	876.32086	-699.06018	-56.40884	760.41510	-607.34766	-76.22187	157.11148	-649.43317	-68.83770	160.59171	-577.66907	113.51089	1335.82104				-693.45715	77.42591	574.90997	-714.16132	-30.62444	617.42065	-718.91492	-28.65267	570.49500	
64	1.260	-637.77826	299.95547	1522.41272	-627.50555	246.93069	1066.16833	-709.22437	289.41803	873.87146	-605.93170	-3.38637	810.79047	-604.68451	219.76190	818.93134	-713.44971	274.35098	744.37927	-739.55420	253.70679	641.97656	-716.41113	69.26400	215.89645	-697.12518	146.79730	578.40558	-738.55475	249.13565	575.99176	-667.77368	19.35858	521.53430	-776.84021	258.85403	501.13547	-683.06018	208.08426	535.97833	-622.19958	-0.08441	1054.92603	-711.68231	154.24759	216.87988	-767.99799	226.38907	204.67656	-882.57434	296.15549	144.64362	-671.82764	52.60597	159.74895	-673.85352	171.64253	158.18188	-591.56744	220.06995	174.55760	-660.90204	298.69006	157.55016	-624.24487	307.14920	158.61244	-555.70349	257.37851	164.48851	-527.99078	304.21622	146.57008	-503.36127	134.91930	1816.27222				-517.67950	-72.98924	142.99757	-549.69159	-29.97021	164.34138	-794.94757	177.11754	183.39693	-616.98126	-61.64641	1529.19226	-790.94550	39.93528	174.07686	-824.28595	101.39049	1059.55823	-763.39856	-40.00875	489.94092	-597.57361	24.69398	168.14032	-759.13245	-18.80277	206.34488	-876.03687	-78.90970	141.42259	-685.83380	-68.43441	876.06110	-702.40503	-57.07338	760.71228	-607.54333	-76.19588	157.13103	-649.33221	-68.97360	160.63788	-576.06519	113.00623	1333.46619				-695.52100	77.63426	574.66376	-715.82666	-30.57920	617.28473	-720.83234	-28.53981	570.40002	
65	1.280	-631.34222	298.97620	1520.52991	-631.27100	246.70181	1065.51563	-712.73151	289.01392	874.39685	-609.63531	-3.81160	811.12305	-608.02081	219.53162	819.06305	-716.83240	274.15289	744.02075	-742.20874	253.97473	641.85040	-716.55713	69.05328	216.05518	-699.63513	146.77278	578.40558	-740.73352	249.24365	576.36249	-669.16156	19.45066	521.61011	-778.28290	258.79361	500.80066	-685.00287	208.37924	536.07495	-625.39471	-0.33383	1054.26709	-711.87537	154.23454	216.97186	-768.05463	226.49228	204.59108	-882.57715	296.08688	144.53578	-671.70020	52.35095	159.79698	-673.85840	171.92113	158.29041	-591.56744	220.06995	174.55760	-660.94800	298.68152	157.31998	-624.46136	306.89774	158.47542	-555.76721	257.29315	164.72430	-528.12280	304.28763	146.42749	-491.75751	134.67477	1812.27283				-517.71826	-73.12451	142.95117	-549.91754	-29.94506	164.35799	-794.83984	177.03046	183.25691	-611.15613	-61.80738	1527.59692	-790.98193	40.00603	173.94753	-827.26117	101.72175	1060.74121	-765.56787	-40.38218	489.67731	-597.31537	24.40923	168.19922	-759.22241	-18.71770	206.29312	-875.85034	-78.68372	141.27127	-690.29718	-68.60414	876.35986	-705.40601	-56.58223	760.60785	-607.40961	-76.25070	157.22189	-649.58478	-69.18697	160.93594	-574.47693	112.69095	1330.87585				-697.30963	77.28542	574.76868	-718.08887	-30.70411	617.30743	-722.46002	-28.83809	570.77930	
66	1.300	-624.55554	298.30145	1518.19019	-634.38605	246.34497	1064.90051	-716.53162	288.72653	874.21484	-612.95386	-3.88053	811.33105	-611.27515	219.60091	819.68787	-719.87781	274.91388	744.07745	-744.63330	253.84581	641.40570	-716.58435	68.82726	216.43066	-701.69196	146.68195	578.38788	-743.14966	249.12477	576.08276	-671.26068	19.12007	521.56317	-780.62469	258.78955	500.56976	-687.13611	208.39240	535.94824	-629.80695	-0.53052	1053.96985	-711.92645	154.50073	217.10046	-768.06360	226.89500	204.39345	-882.56165	296.02393	144.54869	-671.92542	52.27402	159.54361	-674.16095	171.99496	158.23511	-591.62653	220.15839	174.49190	-660.94800	298.68152	157.31998	-624.51538	307.02103	158.47171	-555.84045	257.14764	164.69609	-528.08600	304.15735	146.47820	-480.27396	134.26923	1807.85266				-517.86389	-73.11282	142.97940	-549.93115	-29.99787	164.41934	-795.11542	177.17281	183.39011	-604.88940	-62.04021	1525.60095	-791.19470	39.75592	173.95326	-830.84113	101.55180	1062.35266	-766.89807	-40.17563	489.54218	-597.47534	24.38986	168.28453	-759.45532	-18.97544	206.33089	-875.92670	-78.96062	141.07973	-694.67175	-68.73015	876.55231	-708.95880	-56.73040	760.52393	-607.53912	-76.22231	157.06078	-649.44995	-69.15030	160.92061	-572.51746	111.88177	1327.88965				-699.55176	77.56116	575.02234	-720.04224	-31.08344	617.80432	-724.70007	-28.89900	570.77515	
67	1.320	-617.29272	298.07440	1515.98816	-638.29059	246.22025	1064.33740	-720.11597	289.31177	874.42633	-617.01007	-3.93053	811.75903	-615.54639	219.41702	819.82208	-723.48578	274.23419	743.93091	-747.51111	254.39865	641.78253	-716.95074	68.79327	216.89592	-704.40228	146.59132	578.28088	-745.47925	249.27629	575.83801	-673.37500	19.41434	522.23389	-782.02600	259.00308	500.49734	-689.13922	208.56380	536.81604	-633.56921	-1.07485	1052.07031	-712.52869	154.49884	217.45605	-768.28870	226.92107	204.23889	-882.53406	296.09598	144.57982	-671.83417	52.36834	160.12262	-674.04700	171.75829	158.47122	-591.69141	220.18973	174.43364	-660.97284	299.00452	157.18822	-624.36237	307.20111	158.30905	-555.80414	257.31046	164.64830	-528.03583	304.25760	146.54501	-468.55658	133.40013	1802.81372				-517.85596	-73.00659	142.68681	-550.25647	-29.94548	164.66628	-795.11914	177.27931	183.45181	-598.32520	-62.37760	1523.37134	-791.38416	39.61061	174.05653	-834.63007	101.52431	1063.89075	-768.31232	-40.58568	489.48468	-597.58093	24.49515	168.33104	-759.71790	-19.44057	206.76428	-875.71326	-78.92544	141.33623	-698.83044	-68.99715	876.74261	-712.49548	-57.13170	760.56573	-607.51868	-76.28547	157.21095	-649.47668	-68.98854	160.70639	-570.73352	111.65511	1324.80286				-701.72955	77.62457	574.82599	-722.53723	-31.45952	618.03845	-726.86084	-28.48476	570.11554	
